<svg 
  height="20"
  xmlns="http://www.w3.org/2000/svg" 
  viewBox="0 0 92.73 12.69">
  <path fill="#9DA3AE" d="M12.97,.19l-4.31,8.04v4.27H4.31v-4.27L0,.19H4.33l1.31,2.82,.88,2.24,.88-2.24L8.7,.19h4.27Z"/>
  <path fill="#9DA3AE" d="M16.24,2.99c1.05,0,1.96,.19,2.73,.57,.78,.38,1.38,.93,1.82,1.65,.44,.72,.65,1.6,.65,2.63s-.22,1.89-.65,2.62c-.44,.73-1.04,1.28-1.82,1.66-.78,.38-1.69,.57-2.73,.57s-1.94-.19-2.72-.57c-.78-.38-1.39-.93-1.83-1.66-.44-.73-.65-1.6-.65-2.62s.22-1.91,.65-2.63c.44-.72,1.04-1.27,1.83-1.65,.78-.38,1.69-.57,2.72-.57Zm0,2.89c-.19,0-.35,.05-.48,.16-.14,.11-.24,.3-.31,.59s-.1,.69-.1,1.21,.03,.92,.1,1.2c.07,.28,.17,.48,.31,.59,.14,.11,.3,.17,.48,.17,.2,0,.36-.06,.49-.17,.13-.11,.23-.31,.3-.59,.07-.28,.1-.68,.1-1.2s-.03-.93-.1-1.21c-.07-.29-.17-.48-.3-.59-.13-.11-.3-.16-.49-.16Z"/>
  <path fill="#9DA3AE" d="M25.55,12.69c-.65,0-1.19-.11-1.64-.33-.45-.22-.79-.56-1.03-1.04s-.35-1.09-.35-1.85V3.17h4.29v5.32c0,.36,.06,.62,.18,.78,.12,.16,.3,.24,.53,.24,.14,0,.26-.03,.36-.08,.11-.06,.19-.14,.26-.25,.07-.11,.12-.26,.16-.44,.04-.18,.06-.39,.06-.62V3.17h4.29V12.5h-3.86l-.09-1.98c-.27,.72-.68,1.26-1.2,1.62-.53,.36-1.18,.54-1.95,.54Z"/>
  <path fill="#9DA3AE" d="M34.11,12.5V3.17h3.86l.09,2.33c.21-.77,.54-1.38,.98-1.84,.44-.45,1.03-.68,1.76-.68,.29,0,.5,.03,.65,.07,.15,.05,.25,.1,.32,.15l-.35,3.45c-.11-.05-.27-.09-.48-.13-.21-.04-.44-.06-.69-.06-.37,0-.7,.06-.97,.18-.27,.12-.49,.29-.64,.51-.16,.22-.23,.51-.23,.86v4.48h-4.29Z"/>
  <path fill="#8f1ae2" d="M46.95,9.31h5.58v3.19h-9.93V.19h4.35V9.31Z"/>
  <path fill="#8f1ae2" d="M59.4,0c1.31,0,2.43,.25,3.36,.75,.93,.5,1.65,1.22,2.15,2.17,.5,.95,.75,2.09,.75,3.43s-.25,2.49-.75,3.43c-.5,.95-1.21,1.67-2.15,2.17-.93,.5-2.05,.75-3.36,.75s-2.41-.25-3.35-.75c-.94-.5-1.66-1.22-2.17-2.17s-.76-2.09-.76-3.43,.25-2.49,.76-3.43,1.23-1.67,2.17-2.17c.94-.5,2.06-.75,3.35-.75Zm0,3.27c-.42,0-.77,.11-1.04,.33s-.47,.55-.6,1-.2,1.03-.2,1.75,.07,1.29,.2,1.74c.13,.46,.33,.79,.6,1.01s.61,.33,1.04,.33,.77-.11,1.04-.33c.27-.22,.46-.55,.59-1.01,.12-.45,.19-1.04,.19-1.74s-.06-1.31-.19-1.75c-.12-.45-.32-.78-.59-1-.27-.22-.61-.33-1.04-.33Z"/>
  <path fill="#8f1ae2" d="M72.31,12.69c-1.06,0-2.01-.23-2.86-.7-.85-.47-1.51-1.17-2-2.11-.48-.94-.73-2.11-.73-3.5s.25-2.49,.76-3.44,1.23-1.68,2.19-2.18,2.1-.76,3.43-.76c1.52,0,2.73,.27,3.65,.8,.92,.54,1.61,1.39,2.1,2.58l-4.05,1.46c-.09-.58-.28-.99-.57-1.22-.29-.23-.66-.35-1.09-.35-.47,0-.86,.11-1.15,.34-.29,.22-.5,.56-.63,1.02s-.2,1.03-.2,1.73c0,.77,.08,1.39,.25,1.87s.42,.81,.77,1.02c.34,.21,.77,.31,1.3,.31,.25,0,.48-.03,.68-.08s.39-.13,.54-.23c.16-.11,.27-.24,.36-.4,.08-.16,.12-.35,.12-.58v-.02h-2.07v-2.67h5.71v6.94h-2.87l-.35-3.3,.67,.73c-.21,.88-.65,1.56-1.32,2.04-.67,.48-1.55,.72-2.64,.72Z"/>
  <path fill="#8f1ae2" d="M86.48,0c1.31,0,2.43,.25,3.36,.75,.93,.5,1.65,1.22,2.15,2.17,.5,.95,.75,2.09,.75,3.43s-.25,2.49-.75,3.43c-.5,.95-1.21,1.67-2.15,2.17-.93,.5-2.05,.75-3.36,.75s-2.41-.25-3.35-.75c-.94-.5-1.66-1.22-2.17-2.17s-.76-2.09-.76-3.43,.25-2.49,.76-3.43,1.23-1.67,2.17-2.17c.94-.5,2.06-.75,3.35-.75Zm0,3.27c-.42,0-.77,.11-1.04,.33s-.47,.55-.6,1-.2,1.03-.2,1.75,.07,1.29,.2,1.74c.13,.46,.33,.79,.6,1.01s.61,.33,1.04,.33,.77-.11,1.04-.33c.27-.22,.46-.55,.59-1.01,.12-.45,.19-1.04,.19-1.74s-.06-1.31-.19-1.75c-.12-.45-.32-.78-.59-1-.27-.22-.61-.33-1.04-.33Z"/>
</svg>